HIERARCHY
ROOT Joint1
{
	OFFSET 0.000000 0.000000 0.000000
	CHANNELS 6 Xposition Yposition Zposition Xrotation Yrotation Zrotation
	JOINT Joint2
	{
		OFFSET -0.000000 0.000000 1.456275
		CHANNELS 6 Xposition Yposition Zposition Xrotation Yrotation Zrotation
		JOINT Joint3
		{
			OFFSET -0.000000 0.000002 1.471446
			CHANNELS 6 Xposition Yposition Zposition Xrotation Yrotation Zrotation
			JOINT Joint4
			{
				OFFSET 0.625745 0.000000 0.917755
				CHANNELS 6 Xposition Yposition Zposition Xrotation Yrotation Zrotation
				JOINT Joint5
				{
					OFFSET -0.629534 0.000001 0.940221
					CHANNELS 6 Xposition Yposition Zposition Xrotation Yrotation Zrotation
					JOINT Joint6
					{
						OFFSET -0.000001 0.113772 1.960660
						CHANNELS 6 Xposition Yposition Zposition Xrotation Yrotation Zrotation
						JOINT Joint7
						{
							OFFSET -0.669733 -0.113771 0.388340
							CHANNELS 6 Xposition Yposition Zposition Xrotation Yrotation Zrotation
							End Site
							{
								OFFSET 0.005509 0.005509 0.438980
							}
						}
					}
				}
			}
		}
	}
}
MOTION
Frames: 12
Frame Time: 0.041667
0.000000 0.000000 0.000000 -0.000000 1.019410 0.032091 -0.000000 0.000000 1.456275 -0.000000 -44.937983 -0.000000 -0.000000 0.000002 1.471446 0.000000 -1.133463 -0.076075 0.625745 0.000000 0.917755 0.000004 135.012144 -0.000001 -0.629533 0.000001 0.940221 0.000000 1.709737 -0.012996 -0.000001 0.113772 1.960660 -88.308411 89.957649 -0.003003 -0.669733 -0.113771 0.388339 -0.704553 3.566197 134.929349 
0.000000 0.000000 0.000000 -0.000000 1.019410 0.132818 -0.000000 0.000000 1.456275 0.000000 -44.818185 0.000000 -0.000000 0.000002 1.471446 -0.000000 -1.133460 -0.191667 0.625745 0.000000 0.917755 0.000004 134.994113 -0.000001 -0.629533 0.000001 0.940221 0.000000 1.709736 -0.021688 -0.000000 0.113772 1.960660 -88.306040 89.915527 -0.001449 -0.669733 -0.113771 0.388340 -0.702706 3.566193 134.825311 
0.000000 0.000000 0.000000 -0.000000 1.019410 0.298735 -0.000000 0.000000 1.456275 -0.000000 -44.620857 -0.000000 -0.000000 0.000002 1.471446 -0.000000 -1.133460 -0.382067 0.625745 0.000000 0.917755 0.000004 134.964429 -0.000001 -0.629534 0.000001 0.940221 0.000000 1.709737 -0.036005 -0.000001 0.113772 1.960660 -88.305180 89.846146 -0.000790 -0.669733 -0.113771 0.388340 -0.699661 3.566180 134.653915 
0.000000 0.000000 0.000000 -0.000000 1.019410 0.528234 -0.000000 0.000000 1.456275 0.000000 -44.347903 0.000000 -0.000000 0.000002 1.471446 -0.000000 -1.133461 -0.645434 0.625745 0.000000 0.917755 0.000003 134.923352 -0.000001 -0.629534 0.000001 0.940221 -0.000000 1.709736 -0.055808 -0.000000 0.113772 1.960661 -88.304633 89.750182 -0.000503 -0.669733 -0.113771 0.388340 -0.695450 3.566145 134.416852 
0.000000 0.000000 0.000000 -0.000000 1.019410 0.819710 -0.000000 0.000000 1.456275 0.000000 -44.001243 0.000000 -0.000000 0.000002 1.471446 -0.000000 -1.133459 -0.979924 0.625744 0.000000 0.917755 0.000004 134.871197 -0.000001 -0.629534 0.000001 0.940221 0.000000 1.709736 -0.080960 -0.000000 0.113772 1.960661 -88.304394 89.628283 -0.000343 -0.669733 -0.113771 0.388340 -0.690103 3.566077 134.115737 
0.000000 0.000000 0.000000 -0.000000 1.019410 1.171558 -0.000000 0.000000 1.456275 -0.000000 -43.582771 0.000000 -0.000000 0.000002 1.471446 -0.000000 -1.133461 -1.383693 0.625744 0.000000 0.917755 0.000004 134.808222 -0.000001 -0.629534 0.000001 0.940221 -0.000000 1.709736 -0.111321 -0.000000 0.113772 1.960661 -88.304258 89.481154 -0.000236 -0.669733 -0.113771 0.388341 -0.683648 3.565957 133.752289 
0.000000 0.000000 0.000000 -0.000000 1.019410 1.582172 -0.000000 0.000000 1.456275 0.000000 -43.094416 -0.000000 -0.000000 0.000002 1.471446 -0.000000 -1.133455 -1.854901 0.625745 0.000000 0.917755 0.000004 134.734743 -0.000001 -0.629534 0.000001 0.940221 -0.000000 1.709737 -0.146753 -0.000001 0.113772 1.960660 -88.304135 89.309443 -0.000212 -0.669733 -0.113771 0.388340 -0.676116 3.565766 133.328148 
0.000000 0.000000 0.000000 -0.000000 1.019410 2.049945 -0.000000 0.000000 1.456275 0.000000 -42.538070 0.000000 -0.000001 0.000002 1.471446 0.000000 -1.133462 -2.391703 0.625745 0.000000 0.917755 0.000004 134.651046 -0.000001 -0.629534 0.000001 0.940221 0.000000 1.709736 -0.187117 -0.000001 0.113772 1.960660 -88.304087 89.113826 -0.000108 -0.669733 -0.113771 0.388340 -0.667538 3.565480 132.844939 
0.000000 0.000000 0.000000 -0.000000 1.019410 2.573272 -0.000000 0.000000 1.456275 0.000000 -41.915665 -0.000000 -0.000000 0.000002 1.471446 0.000000 -1.133464 -2.992257 0.625745 0.000000 0.917755 0.000003 134.557404 -0.000001 -0.629534 0.000001 0.940221 0.000000 1.709736 -0.232275 -0.000001 0.113772 1.960661 -88.304046 88.894980 -0.000105 -0.669733 -0.113771 0.388339 -0.657945 3.565074 132.304343 
0.000000 0.000000 0.000000 -0.000000 1.019410 3.150547 -0.000000 0.000000 1.456275 0.000000 -41.229091 -0.000000 -0.000000 0.000002 1.471446 -0.000000 -1.133465 -3.654720 0.625745 0.000000 0.917755 0.000004 134.454091 -0.000001 -0.629533 0.000001 0.940221 -0.000000 1.709736 -0.282088 -0.000002 0.113772 1.960661 -88.304012 88.653574 -0.000066 -0.669733 -0.113771 0.388340 -0.647369 3.564522 131.708040 
0.000000 0.000000 0.000000 -0.000000 1.019410 3.780163 -0.000000 0.000000 1.456275 -0.000000 -40.480257 -0.000000 -0.000000 0.000002 1.471446 -0.000000 -1.133459 -4.377250 0.625744 0.000000 0.917755 0.000004 134.341420 -0.000001 -0.629534 0.000001 0.940220 -0.000000 1.709737 -0.336418 -0.000001 0.113772 1.960660 -88.304019 88.390277 -0.000093 -0.669733 -0.113771 0.388341 -0.635838 3.563795 131.057642 
0.000000 0.000000 0.000000 -0.000000 1.019410 4.459757 -0.000000 0.000000 1.456275 -0.000000 -39.671989 -0.000000 -0.000000 0.000002 1.471446 -0.000000 -1.133459 -5.157130 0.625745 0.000000 0.917755 0.000004 134.219801 -0.000001 -0.629534 0.000001 0.940221 -0.000000 1.709737 -0.395060 -0.000001 0.113772 1.960660 -88.304012 88.106087 -0.000048 -0.669733 -0.113771 0.388341 -0.623405 3.562863 130.355622 
